<?xml version="1.0" encoding="UTF-8" standalone="no"?>
<!DOCTYPE svg PUBLIC "-//W3C//DTD SVG 1.1//EN"
 "http://www.w3.org/Graphics/SVG/1.1/DTD/svg11.dtd">
<!-- Generated by graphviz version 2.43.0 (0)
 -->
<!-- Title: G Pages: 1 -->
<svg width="1263pt" height="206pt"
 viewBox="0.00 0.00 1263.00 206.00" xmlns="http://www.w3.org/2000/svg" xmlns:xlink="http://www.w3.org/1999/xlink">
<g id="graph0" class="graph" transform="scale(1 1) rotate(0) translate(4 202)">
<title>G</title>
<polygon fill="white" stroke="transparent" points="-4,4 -4,-202 1259,-202 1259,4 -4,4"/>
<!-- data.archive_file.lambda_zip -->
<g id="node1" class="node">
<title>data.archive_file.lambda_zip</title>
<polygon fill="none" stroke="black" points="213,-90 0,-90 0,-54 213,-54 213,-90"/>
<text text-anchor="middle" x="106.5" y="-68.3" font-family="sans-serif" font-size="14.00">data.archive_file.lambda_zip</text>
</g>
<!-- aws_iam_role.lambda_role -->
<g id="node2" class="node">
<title>aws_iam_role.lambda_role</title>
<polygon fill="none" stroke="black" points="205,-144 8,-144 8,-108 205,-108 205,-144"/>
<text text-anchor="middle" x="106.5" y="-122.3" font-family="sans-serif" font-size="14.00">aws_iam_role.lambda_role</text>
</g>
<!-- aws_iam_role_policy_attachment.lambda_basic_logs -->
<g id="node3" class="node">
<title>aws_iam_role_policy_attachment.lambda_basic_logs</title>
<polygon fill="none" stroke="black" points="625,-198 249,-198 249,-162 625,-162 625,-198"/>
<text text-anchor="middle" x="437" y="-176.3" font-family="sans-serif" font-size="14.00">aws_iam_role_policy_attachment.lambda_basic_logs</text>
</g>
<!-- aws_iam_role_policy_attachment.lambda_basic_logs&#45;&gt;aws_iam_role.lambda_role -->
<g id="edge1" class="edge">
<title>aws_iam_role_policy_attachment.lambda_basic_logs&#45;&gt;aws_iam_role.lambda_role</title>
<path fill="none" stroke="black" d="M305.86,-161.98C286.77,-159.11 267.36,-156.08 249,-153 235.9,-150.81 222.15,-148.36 208.57,-145.86"/>
<polygon fill="black" stroke="black" points="209.2,-142.42 198.73,-144.04 207.93,-149.3 209.2,-142.42"/>
</g>
<!-- aws_iam_role_policy_attachment.lambda_s3_access -->
<g id="node4" class="node">
<title>aws_iam_role_policy_attachment.lambda_s3_access</title>
<polygon fill="none" stroke="black" points="624,-144 250,-144 250,-108 624,-108 624,-144"/>
<text text-anchor="middle" x="437" y="-122.3" font-family="sans-serif" font-size="14.00">aws_iam_role_policy_attachment.lambda_s3_access</text>
</g>
<!-- aws_iam_role_policy_attachment.lambda_s3_access&#45;&gt;aws_iam_role.lambda_role -->
<g id="edge2" class="edge">
<title>aws_iam_role_policy_attachment.lambda_s3_access&#45;&gt;aws_iam_role.lambda_role</title>
<path fill="none" stroke="black" d="M249.67,-126C238.03,-126 226.54,-126 215.44,-126"/>
<polygon fill="black" stroke="black" points="215.36,-122.5 205.36,-126 215.36,-129.5 215.36,-122.5"/>
</g>
<!-- aws_lambda_function.file_processor -->
<g id="node5" class="node">
<title>aws_lambda_function.file_processor</title>
<polygon fill="none" stroke="black" points="570,-90 304,-90 304,-54 570,-54 570,-90"/>
<text text-anchor="middle" x="437" y="-68.3" font-family="sans-serif" font-size="14.00">aws_lambda_function.file_processor</text>
</g>
<!-- aws_lambda_function.file_processor&#45;&gt;data.archive_file.lambda_zip -->
<g id="edge3" class="edge">
<title>aws_lambda_function.file_processor&#45;&gt;data.archive_file.lambda_zip</title>
<path fill="none" stroke="black" d="M303.81,-72C277.21,-72 249.44,-72 223.45,-72"/>
<polygon fill="black" stroke="black" points="223.2,-68.5 213.2,-72 223.2,-75.5 223.2,-68.5"/>
</g>
<!-- aws_lambda_function.file_processor&#45;&gt;aws_iam_role.lambda_role -->
<g id="edge4" class="edge">
<title>aws_lambda_function.file_processor&#45;&gt;aws_iam_role.lambda_role</title>
<path fill="none" stroke="black" d="M305.86,-90.02C286.77,-92.89 267.36,-95.92 249,-99 235.9,-101.19 222.15,-103.64 208.57,-106.14"/>
<polygon fill="black" stroke="black" points="207.93,-102.7 198.73,-107.96 209.2,-109.58 207.93,-102.7"/>
</g>
<!-- aws_lambda_permission.allow_s3 -->
<g id="node6" class="node">
<title>aws_lambda_permission.allow_s3</title>
<polygon fill="none" stroke="black" points="909,-63 661,-63 661,-27 909,-27 909,-63"/>
<text text-anchor="middle" x="785" y="-41.3" font-family="sans-serif" font-size="14.00">aws_lambda_permission.allow_s3</text>
</g>
<!-- aws_lambda_permission.allow_s3&#45;&gt;aws_lambda_function.file_processor -->
<g id="edge5" class="edge">
<title>aws_lambda_permission.allow_s3&#45;&gt;aws_lambda_function.file_processor</title>
<path fill="none" stroke="black" d="M660.55,-54.63C634.57,-56.66 606.95,-58.82 580.34,-60.89"/>
<polygon fill="black" stroke="black" points="579.89,-57.42 570.19,-61.68 580.43,-64.4 579.89,-57.42"/>
</g>
<!-- aws_s3_bucket.uploads -->
<g id="node8" class="node">
<title>aws_s3_bucket.uploads</title>
<polygon fill="none" stroke="black" points="526.5,-36 347.5,-36 347.5,0 526.5,0 526.5,-36"/>
<text text-anchor="middle" x="437" y="-14.3" font-family="sans-serif" font-size="14.00">aws_s3_bucket.uploads</text>
</g>
<!-- aws_lambda_permission.allow_s3&#45;&gt;aws_s3_bucket.uploads -->
<g id="edge6" class="edge">
<title>aws_lambda_permission.allow_s3&#45;&gt;aws_s3_bucket.uploads</title>
<path fill="none" stroke="black" d="M660.55,-35.37C619.93,-32.2 575.33,-28.72 536.79,-25.71"/>
<polygon fill="black" stroke="black" points="536.86,-22.2 526.62,-24.92 536.31,-29.18 536.86,-22.2"/>
</g>
<!-- aws_s3_bucket.processed -->
<g id="node7" class="node">
<title>aws_s3_bucket.processed</title>
<polygon fill="none" stroke="black" points="1197.5,-117 1002.5,-117 1002.5,-81 1197.5,-81 1197.5,-117"/>
<text text-anchor="middle" x="1100" y="-95.3" font-family="sans-serif" font-size="14.00">aws_s3_bucket.processed</text>
</g>
<!-- aws_s3_bucket_notification.upload_trigger -->
<g id="node9" class="node">
<title>aws_s3_bucket_notification.upload_trigger</title>
<polygon fill="none" stroke="black" points="1255,-63 945,-63 945,-27 1255,-27 1255,-63"/>
<text text-anchor="middle" x="1100" y="-41.3" font-family="sans-serif" font-size="14.00">aws_s3_bucket_notification.upload_trigger</text>
</g>
<!-- aws_s3_bucket_notification.upload_trigger&#45;&gt;aws_lambda_permission.allow_s3 -->
<g id="edge7" class="edge">
<title>aws_s3_bucket_notification.upload_trigger&#45;&gt;aws_lambda_permission.allow_s3</title>
<path fill="none" stroke="black" d="M944.79,-45C936.35,-45 927.89,-45 919.52,-45"/>
<polygon fill="black" stroke="black" points="919.37,-41.5 909.37,-45 919.37,-48.5 919.37,-41.5"/>
</g>
</g>
</svg>
